<svg xmlns="http://www.w3.org/2000/svg" width="297.0mm" height="210.0mm" viewBox="0 0 297.0 210.0">
<rect x="0" y="0" width="297.0" height="210.0" fill="#ffffff"/>
<rect x="48.5000" y="17.5000" width="25.0" height="25.0" fill="#000000"/>
<rect x="98.5000" y="17.5000" width="25.0" height="25.0" fill="#000000"/>
<rect x="148.5000" y="17.5000" width="25.0" height="25.0" fill="#000000"/>
<rect x="198.5000" y="17.5000" width="25.0" height="25.0" fill="#000000"/>
<rect x="248.5000" y="17.5000" width="25.0" height="25.0" fill="#000000"/>
<rect x="23.5000" y="42.5000" width="25.0" height="25.0" fill="#000000"/>
<rect x="73.5000" y="42.5000" width="25.0" height="25.0" fill="#000000"/>
<rect x="123.5000" y="42.5000" width="25.0" height="25.0" fill="#000000"/>
<rect x="173.5000" y="42.5000" width="25.0" height="25.0" fill="#000000"/>
<rect x="223.5000" y="42.5000" width="25.0" height="25.0" fill="#000000"/>
<rect x="48.5000" y="67.5000" width="25.0" height="25.0" fill="#000000"/>
<rect x="98.5000" y="67.5000" width="25.0" height="25.0" fill="#000000"/>
<rect x="148.5000" y="67.5000" width="25.0" height="25.0" fill="#000000"/>
<rect x="198.5000" y="67.5000" width="25.0" height="25.0" fill="#000000"/>
<rect x="248.5000" y="67.5000" width="25.0" height="25.0" fill="#000000"/>
<rect x="23.5000" y="92.5000" width="25.0" height="25.0" fill="#000000"/>
<rect x="73.5000" y="92.5000" width="25.0" height="25.0" fill="#000000"/>
<rect x="123.5000" y="92.5000" width="25.0" height="25.0" fill="#000000"/>
<rect x="173.5000" y="92.5000" width="25.0" height="25.0" fill="#000000"/>
<rect x="223.5000" y="92.5000" width="25.0" height="25.0" fill="#000000"/>
<rect x="48.5000" y="117.5000" width="25.0" height="25.0" fill="#000000"/>
<rect x="98.5000" y="117.5000" width="25.0" height="25.0" fill="#000000"/>
<rect x="148.5000" y="117.5000" width="25.0" height="25.0" fill="#000000"/>
<rect x="198.5000" y="117.5000" width="25.0" height="25.0" fill="#000000"/>
<rect x="248.5000" y="117.5000" width="25.0" height="25.0" fill="#000000"/>
<rect x="23.5000" y="142.5000" width="25.0" height="25.0" fill="#000000"/>
<rect x="73.5000" y="142.5000" width="25.0" height="25.0" fill="#000000"/>
<rect x="123.5000" y="142.5000" width="25.0" height="25.0" fill="#000000"/>
<rect x="173.5000" y="142.5000" width="25.0" height="25.0" fill="#000000"/>
<rect x="223.5000" y="142.5000" width="25.0" height="25.0" fill="#000000"/>
<rect x="48.5000" y="167.5000" width="25.0" height="25.0" fill="#000000"/>
<rect x="98.5000" y="167.5000" width="25.0" height="25.0" fill="#000000"/>
<rect x="148.5000" y="167.5000" width="25.0" height="25.0" fill="#000000"/>
<rect x="198.5000" y="167.5000" width="25.0" height="25.0" fill="#000000"/>
<rect x="248.5000" y="167.5000" width="25.0" height="25.0" fill="#000000"/>
</svg>